<svg id="Layer_1" data-name="Layer 1" xmlns="http://www.w3.org/2000/svg" viewBox="0 0 800 800"><defs><style>.cls-1{fill:#ccc;stroke:#333;stroke-linecap:round;stroke-linejoin:round;stroke-width:10px;}.cls-2{fill:#f49fc1;}.cls-3,.cls-4{fill:#1a1a1a;}.cls-4{stroke:#1e1e1e;stroke-miterlimit:10;}</style></defs><title>CuteSeal_VECTOR</title><path class="cls-1" d="M555.82,358.81c18.7-2.34,37.53-13,54.09-21.5q15.68-8,30.67-17.27c8.85-5.46,18.78-15.44,29.57-16,3.18-.17,6.38-.34,9.36,1.56,9.16,5.82,6.32,24.86,5.44,30.78-1,6.72-5.17,28.66-32.35,58.2-19.65,21.36-61.81,58.68-61.81,58.68s-26.42,54.24-52.85,80.67C512.25,559.6,456.34,610.47,365,653c-42.85,19.94-53,20-75.83,37.8,0,0-49.48,33.76-66,60.1-21.64,34.48-66.35,34.86-86.47,4.69s4.59-47.72,8.16-54.1l37.6-1.71c-23.17,4.51-62.9,4.63-68.7-25.24-4-20.54,11-43.23,29.57-51.18,20.87-9,42.18-1.51,62.86,3.87,12.57,3.28,26,4.38,38.3-.59,12.6-5.1,23.16-16.15,32.29-25.91,20.29-21.72,37-47,47.15-74.69,8.06-21.94,9.4-44.55,9.4-44.55a9.67,9.67,0,0,0-.87-6.49,9.88,9.88,0,0,0-6.1-5l-.09,0c-27.47-7.85-53-29.41-70.49-51.23-9.38-11.69-36.34-45.34-22.41-61.28,6-6.89,17.69-5.95,24.95-1.84,11.11,6.3,42.77,30.76,62,28.83a13,13,0,0,0,10.52-17.29c-15.17-41.68-43-77.58-55.89-120.2-17-56.4-9.85-121.66,27.41-168.37,26-32.55,64.35-52.12,105.76-55.13,39.25-2.86,79.48,8.29,112,30.34A144.75,144.75,0,0,1,541.3,70.85c72.63,72.63,76.05,209.35,75,262.93"/><path class="cls-2" d="M431.07,225.51s-13.67,29.05-13.67,30.76,34.18,17.09,34.18,17.09l29.05-30.76-29.05-20.51Z"/><path class="cls-3" d="M532.87,228a6,6,0,0,0-8.15-2.24c-.22.12-21.7,12.16-41.83,10.45-8.28-.7-17.73-6.59-24.88-15.29,4.95-5.59,7-12.71,4.76-19.19-3.65-10.61-17.37-15.51-30.63-10.94s-21,16.87-17.39,27.48a17.78,17.78,0,0,0,9.37,10.23c-1.31,9.38-7.08,15.9-15.91,23.25h0l0,0c-16.28,13.52-38.74,20.22-39.05,20.32a6,6,0,0,0,1.67,11.72,6.14,6.14,0,0,0,1.68-.24c.93-.27,21.51-6.38,39-19.25C418.58,270.49,431.17,278,445,278a36,36,0,0,0,4.26-.24c14.67-1.69,27-11.59,36.64-29.44l.95,0c22.1,0,42.81-11.66,43.75-12.19A6,6,0,0,0,532.87,228Zm-84.94,37.88c-10.69,1.21-21.12-4.62-27.06-9.33,7.15-6.69,13.24-14.65,15-25.65a31.42,31.42,0,0,0,9.52-1.69c1-.36,2-.77,3-1.21,7,8.74,15.94,15.22,25,18.28C466.06,258.17,457.55,264.77,447.93,265.88Z"/><path class="cls-3" d="M356.53,240.21a7.86,7.86,0,0,1-.83-.05l-45.79-5.55A6.83,6.83,0,1,1,311.56,221l45.78,5.55a6.83,6.83,0,0,1-.81,13.62Z"/><path class="cls-3" d="M313.08,280a6.84,6.84,0,0,1-2.67-13.13l42.59-18a6.84,6.84,0,1,1,5.33,12.59l-42.59,18A7,7,0,0,1,313.08,280Z"/><path class="cls-3" d="M530.7,203.52a6.84,6.84,0,0,1-3.7-12.59l40.21-25.81a6.84,6.84,0,0,1,7.38,11.51l-40.2,25.81A6.87,6.87,0,0,1,530.7,203.52Z"/><path class="cls-3" d="M543.44,220.67a6.84,6.84,0,0,1-.05-13.67l45.48-.37h.06A6.84,6.84,0,0,1,589,220.3l-45.48.37Z"/><path class="cls-3" d="M375.25,151.9l16.34-3.08a5.42,5.42,0,0,1,6.46,5.25v.06c0,23.94-15.64,43.63-34.65,43.63s-34.64-19.69-34.64-43.63,15.64-43.62,34.64-43.62a29.16,29.16,0,0,1,16.47,5.24,5.51,5.51,0,0,1,1.63,7.32l-12,20.65A5.51,5.51,0,0,0,375.25,151.9Z"/><path class="cls-4" d="M498.84,123.5l16.34-3.08a5.41,5.41,0,0,1,6.46,5.25v.06c0,23.93-15.64,43.63-34.64,43.63s-34.65-19.7-34.65-43.63S468,82.1,487,82.1a29.2,29.2,0,0,1,16.46,5.24,5.51,5.51,0,0,1,1.63,7.32l-12,20.65A5.51,5.51,0,0,0,498.84,123.5Z"/></svg>