<svg id="Layer_1" data-name="Layer 1" xmlns="http://www.w3.org/2000/svg" viewBox="0 0 800 800"><defs><style>.cls-1{fill:#b3b3b3;}.cls-2{fill:#4d4d4d;}.cls-3{fill:#999;}.cls-4{fill:gray;}.cls-5{fill:#ccc;}</style></defs><title>Fishies_VECTOR</title><path class="cls-1" d="M694.29,412.07l44.21-4.57s-81-79-184-89c-7-25-20-54-29-64,0,3-5,40-60,50s-50,27-55,30a12.07,12.07,0,0,1-10,1s-34-35-65-44c.95.28,8.47,18.2,9.43,20.44,4.73,11.1,14.66,38.42-.1,44.33-19.92,8-39.59,16.54-59.41,24.59-16.49,6.7-33.15,11.3-51,12.45-16.77,1.08-38.74,5.14-40-17.44-1.83-31.83-6.79-63.67-16.68-94-2.79-8.6-6.81-17-10.85-25.11A42.47,42.47,0,0,0,159,245c-2.3-2.33-4.08-2.56-4.48.62-.67,6.7-1.48,13.3-1.76,20-.28,7.13-.35,14.27-.64,21.4-.9,22.26.87,44.95-4,66.86-4.47,20-16.9,36.71-31.58,50.62-20.23,19.17-43.16,39.47-68,52.3-2.24,1.15-6.15,3.4-3.55,6.36a3.18,3.18,0,0,0,2.59,1,219.17,219.17,0,0,0,79.35-20,298.24,298.24,0,0,0,42.93-23.72c6.14-4.14,12.61-6.61,19.22-3.12,7.76,4.11,14.8,10.09,22.52,14.44,18.16,10.25,37.39,16.35,56.75,23.69,18.1,6.86,36.12,13.91,54.14,21-1,12-2,32-18,55-2,9,57-2,81-31,17.35,5,67.63,19.73,123.05,21.56,2,9,4.95,13.44,5.95,50.44,0,5,14,0,34-50,0,0,79-5,122-33,16-8,42-33.92,68-37.92-1.79-1.79-37.89-13.42-45.89-20.05-7.13-5.91-9.57-12.67-4.94-17A9.76,9.76,0,0,1,694.29,412.07Z"/><path class="cls-2" d="M672.5,400.5c0,9.94-6.27-8.27-14-8.27s-14,18.21-14,8.27,6.27-18,14-18S672.5,390.56,672.5,400.5Z"/><path class="cls-3" d="M395.17,386.51c17.51,12.26,71.42,49.11,103,60.86a3.46,3.46,0,0,0,.7.19,112.67,112.67,0,0,0,33.55.46,3.59,3.59,0,0,0,3.09-3.45,90.4,90.4,0,0,1,8.19-34.39,3.61,3.61,0,0,0-2.09-4.95c-17.63-6-76.19-27-110.88-30.71l-.44,0a117.11,117.11,0,0,0-34.14,5.64A3.6,3.6,0,0,0,395.17,386.51Z"/><path class="cls-4" d="M508.55,522.35c2,9,4.95,13.45,5.95,50.45,0,5,14-.3,34-50.3A289.49,289.49,0,0,1,508.55,522.35Z"/><path class="cls-5" d="M306.69,470.31S352,446,394,449s77,21,96,25,110.34,23.09,125.89,37.52C552.1,526.94,492,531,386,501,307,470,306.69,470.31,306.69,470.31Z"/><path class="cls-4" d="M615.92,377.32c-.36,1.24-.89,2.29-1.17,3.5l-.54,1.7c-.16.58-.29,1.16-.43,1.73-.58,2.28-1,4.55-1.43,6.81-.77,4.52-1.25,9-1.58,13.56a235.69,235.69,0,0,0-.34,27.1A228,228,0,0,0,613,458.66c.72,4.48,1.62,8.94,2.76,13.42.26,1.14.63,2.22.91,3.37s.71,2.22,1,3.39c.72,2.27,1.58,4.51,2.45,6.9l.05.15a.43.43,0,0,1-.73.43,59.37,59.37,0,0,1-8.06-12.09,86.08,86.08,0,0,1-5.3-13.53,120.65,120.65,0,0,1-2.44-57.51,81.05,81.05,0,0,1,4.12-13.94,47.54,47.54,0,0,1,7.42-12.51.43.43,0,0,1,.6-.05.43.43,0,0,1,.14.45Z"/><path class="cls-4" d="M554.5,318.5c-7-25-20-54-29-64,0,3-5,40-60,50s-50,27-55,30C410.5,334.5,506.15,309.29,554.5,318.5Z"/><path class="cls-4" d="M400.5,335.5s-34-35-65-44c.95.28,8.47,18.2,9.43,20.44,4.73,11.1,14.66,38.42-.1,44.33C344.83,356.27,373.29,340.64,400.5,335.5Z"/><path class="cls-4" d="M385.5,500.5c-24,29-83,40-81,31,16-23,17-43,18-55Z"/><path class="cls-4" d="M581.22,377.32c-.37,1.24-.9,2.29-1.18,3.5l-.54,1.7c-.16.58-.29,1.16-.43,1.73-.58,2.28-1,4.55-1.42,6.81-.78,4.52-1.26,9-1.59,13.56a238,238,0,0,0-.34,27.1,228,228,0,0,0,2.61,26.94c.72,4.48,1.62,8.94,2.76,13.42.26,1.14.63,2.22.91,3.37s.71,2.22,1,3.39c.72,2.27,1.58,4.51,2.45,6.9l.06.15a.43.43,0,0,1-.74.43,59.79,59.79,0,0,1-8.06-12.09,86.08,86.08,0,0,1-5.3-13.53A120.65,120.65,0,0,1,569,403.19a81.05,81.05,0,0,1,4.12-13.94,47.81,47.81,0,0,1,7.42-12.51.43.43,0,0,1,.6-.05.43.43,0,0,1,.14.45Z"/></svg>