<svg id="Layer_1" data-name="Layer 1" xmlns="http://www.w3.org/2000/svg" xmlns:xlink="http://www.w3.org/1999/xlink" viewBox="0 0 1280 720"><defs><style>.cls-1{fill:none;}.cls-2{clip-path:url(#clip-path);}.cls-3{fill:url(#linear-gradient);}.cls-4{fill:#0e1040;}.cls-5{fill:url(#linear-gradient-2);}.cls-6{fill:url(#linear-gradient-3);}.cls-7{fill:url(#linear-gradient-4);}.cls-8{clip-path:url(#clip-path-2);}.cls-9{opacity:0.55;}.cls-10{fill:url(#linear-gradient-5);}.cls-11{fill:url(#linear-gradient-6);}.cls-12{fill:url(#linear-gradient-7);}.cls-13{opacity:0.39;}.cls-14{fill:url(#linear-gradient-8);}.cls-15{fill:url(#linear-gradient-9);}.cls-16{fill:url(#linear-gradient-10);}.cls-17{fill:url(#linear-gradient-11);}.cls-18{fill:url(#linear-gradient-12);}.cls-19{fill:url(#linear-gradient-13);}.cls-20{fill:url(#linear-gradient-14);}.cls-21{fill:url(#linear-gradient-15);}.cls-22{fill:url(#linear-gradient-16);}.cls-23{fill:url(#linear-gradient-17);}.cls-24{fill:url(#linear-gradient-18);}.cls-25{fill:url(#linear-gradient-19);}.cls-26{fill:url(#linear-gradient-20);}.cls-27{fill:url(#linear-gradient-21);}.cls-28{fill:url(#linear-gradient-22);}.cls-29{fill:#fff;}</style><clipPath id="clip-path"><rect class="cls-1" x="-0.12" y="-0.18" width="1280.12" height="720.18"/></clipPath><linearGradient id="linear-gradient" x1="639.94" y1="551.79" x2="639.94" y2="-28.5" gradientUnits="userSpaceOnUse"><stop offset="0" stop-color="#5e3392"/><stop offset="0.09" stop-color="#512c85"/><stop offset="0.35" stop-color="#2e1964"/><stop offset="0.6" stop-color="#150c4c"/><stop offset="0.82" stop-color="#05043d"/><stop offset="1" stop-color="#000138"/></linearGradient><linearGradient id="linear-gradient-2" x1="1828.46" y1="267.16" x2="1833.25" y2="470.52" gradientTransform="matrix(-1, 0, 0, 1, 2046.69, 0)" gradientUnits="userSpaceOnUse"><stop offset="0.01" stop-color="#2d2d84"/><stop offset="1" stop-color="#000138"/></linearGradient><linearGradient id="linear-gradient-3" x1="1941.73" y1="268.71" x2="1957.26" y2="447.86" xlink:href="#linear-gradient-2"/><linearGradient id="linear-gradient-4" x1="653.5" y1="706.37" x2="653.5" y2="450.45" gradientUnits="userSpaceOnUse"><stop offset="0.01" stop-color="#232162"/><stop offset="0.31" stop-color="#232365"/><stop offset="0.52" stop-color="#232b6e"/><stop offset="0.7" stop-color="#24387d"/><stop offset="0.86" stop-color="#254a93"/><stop offset="1" stop-color="#265fab"/></linearGradient><clipPath id="clip-path-2"><rect class="cls-1" x="-64.85" y="449.55" width="739.15" height="265.5"/></clipPath><linearGradient id="linear-gradient-5" x1="1733.48" y1="946.75" x2="1749.24" y2="1128.53" gradientTransform="translate(2046.69 1481.01) rotate(180)" gradientUnits="userSpaceOnUse"><stop offset="0.01" stop-color="#263779"/><stop offset="1" stop-color="#000138"/></linearGradient><linearGradient id="linear-gradient-6" x1="276.89" y1="888.65" x2="281.49" y2="1083.93" gradientTransform="matrix(1, 0, 0, -1, 0, 1481.01)" gradientUnits="userSpaceOnUse"><stop offset="0.01" stop-color="#173d69"/><stop offset="1" stop-color="#000138"/></linearGradient><linearGradient id="linear-gradient-7" x1="1941.73" y1="888.81" x2="1957.26" y2="1067.96" gradientTransform="translate(2046.69 1481.01) rotate(180)" xlink:href="#linear-gradient-6"/><linearGradient id="linear-gradient-8" x1="800.08" y1="347.22" x2="762.42" y2="121.24" gradientUnits="userSpaceOnUse"><stop offset="0" stop-color="#6ecce6"/><stop offset="0.01" stop-color="#6ac8e3"/><stop offset="0.11" stop-color="#3ca1c1"/><stop offset="0.2" stop-color="#1b85a8"/><stop offset="0.27" stop-color="#077499"/><stop offset="0.32" stop-color="#006e94"/><stop offset="0.42" stop-color="#00648b" stop-opacity="0.9"/><stop offset="0.6" stop-color="#004874" stop-opacity="0.65"/><stop offset="0.86" stop-color="#001c4f" stop-opacity="0.25"/><stop offset="0.99" stop-color="#000138" stop-opacity="0"/></linearGradient><linearGradient id="linear-gradient-9" x1="709.66" y1="320.39" x2="670.69" y2="86.61" xlink:href="#linear-gradient-8"/><linearGradient id="linear-gradient-10" x1="879.24" y1="307.32" x2="842.14" y2="84.74" xlink:href="#linear-gradient-8"/><linearGradient id="linear-gradient-11" x1="1255.98" y1="285.16" x2="1217.08" y2="51.73" xlink:href="#linear-gradient-8"/><linearGradient id="linear-gradient-12" x1="1017.12" y1="337.87" x2="979.97" y2="114.94" xlink:href="#linear-gradient-8"/><linearGradient id="linear-gradient-13" x1="448.44" y1="321.32" x2="426.21" y2="137.54" xlink:href="#linear-gradient-8"/><linearGradient id="linear-gradient-14" x1="412.11" y1="300.61" x2="390.2" y2="119.49" xlink:href="#linear-gradient-8"/><linearGradient id="linear-gradient-15" x1="570.09" y1="302.02" x2="548.46" y2="123.2" xlink:href="#linear-gradient-8"/><linearGradient id="linear-gradient-16" x1="619.2" y1="252.17" x2="596.98" y2="68.44" xlink:href="#linear-gradient-8"/><linearGradient id="linear-gradient-17" x1="320.63" y1="197.72" x2="307.11" y2="74.62" xlink:href="#linear-gradient-8"/><linearGradient id="linear-gradient-18" x1="-41.23" y1="220.96" x2="-54.37" y2="101.23" xlink:href="#linear-gradient-8"/><linearGradient id="linear-gradient-19" x1="98.72" y1="231.84" x2="86.89" y2="124.12" xlink:href="#linear-gradient-8"/><linearGradient id="linear-gradient-20" x1="181.63" y1="185.98" x2="170.03" y2="80.34" xlink:href="#linear-gradient-8"/><linearGradient id="linear-gradient-21" x1="242.32" y1="235.06" x2="228.93" y2="113.05" xlink:href="#linear-gradient-8"/><linearGradient id="linear-gradient-22" x1="656.67" y1="465.85" x2="670.02" y2="712.8" gradientUnits="userSpaceOnUse"><stop offset="0.01" stop-color="#0d1138"/><stop offset="1" stop-color="#000138"/></linearGradient></defs><title>Artboard 1</title><g class="cls-2"><rect class="cls-3" x="-0.12" y="-0.18" width="1280.12" height="720.18"/><polygon class="cls-4" points="-3.54 291.51 98.88 255.12 212.26 312.67 267.12 312.67 335.65 351.45 409.76 335.2 603.61 373.91 621.88 454.88 15.67 454.88 -3.54 291.51"/><polygon class="cls-5" points="267.12 312.67 221.14 342.46 258.43 342.46 165.17 398.61 212.26 312.67 267.12 312.67"/><polygon class="cls-6" points="98.88 255.12 78.76 298.79 44.01 298.79 152.82 369.29 62.3 369.29 38.07 384.99 195.8 449.55 -11.46 449.55 -3.54 291.51 98.88 255.12"/><rect class="cls-7" x="-0.12" y="458.07" width="1307.25" height="261.93"/><g class="cls-8"><g class="cls-9"><polygon class="cls-10" points="-3.54 569.4 98.88 605.79 212.26 548.24 267.12 548.24 335.65 509.46 409.76 525.71 603.61 487 621.88 406.03 15.67 406.03 -3.54 569.4"/><polygon class="cls-11" points="343.3 548.24 393.33 522.11 352.99 513.27 165.17 462.3 212.26 548.24 343.3 548.24"/><polygon class="cls-12" points="98.88 605.79 78.76 562.12 44.01 562.12 152.82 491.63 62.3 491.63 38.07 475.93 195.8 411.37 -11.46 411.37 -3.54 569.4 98.88 605.79"/></g></g><g class="cls-13"><path class="cls-14" d="M831.79,301.94c-11-63.78-19.2-126.11-27.43-189.4C797.67,68,791.94,23.22,775-20.24c-28,.34-55.23.57-80.1.52,28.55,83.24,33,168.87,48.17,254,6.1,35.48,15.61,70.45,27.21,105.13q34.56-2,69.12-4.84C836.44,323.77,833.82,312.9,831.79,301.94Z"/><path class="cls-15" d="M694.93-19.72c-39.1-.07-72.44-.86-94.16-3-1.9-.19-3.86,0-5.79,0,13.33,62.54,64.34,326,64.34,326,2.49,5.27-4,10.47-5.2,15.86-1.92,8.8,11.2,17,26.75,20.28s32.94,2.83,49.65,2.11q19.89-.84,39.79-2c-11.6-34.68-21.11-69.65-27.21-105.13C728,149.15,723.48,63.52,694.93-19.72Z"/><path class="cls-16" d="M898.22,136.94C885,83.76,880.84,30.62,868.46-21.54c-30.81.41-62.62.92-93.43,1.3C791.94,23.22,797.67,68,804.36,112.54c8.23,63.29,16.46,125.62,27.43,189.4,2,11,4.65,21.83,7.64,32.65,29.51-2.34,59-5,88.49-7.64C918.73,264.12,914.41,201.09,898.22,136.94Z"/><path class="cls-17" d="M1355.25,124.08c8.19-47.8,28.12-95.66,26.69-143.64-124.2-.78-239.37-1.16-353.74-1.5,13.86,51.26,25.39,102.55,31.27,154.86,7.13,60.27,26.11,119.49,42.19,178.75,87.26-5.61,174.23-7.36,260.73,1.21C1352.61,250.48,1344.42,187.31,1355.25,124.08Z"/><path class="cls-18" d="M1028.2-21.06c-53.15-.16-106.12-.3-159.74-.48C880.84,30.62,885,83.76,898.22,136.94c16.19,64.15,20.51,127.18,29.7,190,58-5.26,115.94-10.68,173.74-14.4-16.08-59.26-35.06-118.48-42.19-178.75C1053.59,81.49,1042.06,30.2,1028.2-21.06Z"/><path class="cls-19" d="M529.53,292.76c-22.49,1.29-45,2.74-67.27,3.22-23.33.49-46.46-.08-69.2-3-11.13-1.43-22.75-3.7-29.35-8.65-11.08-8.3-3.11-19.88,7.52-28.35s24.29-17,24.11-27.13a12.82,12.82,0,0,0-2.66-7.27l-46.63-246q35.68-.08,71.39,0t71.13.24c11.85,73.25,14,147.32,23.19,221.26C515.76,229.21,522.55,261,529.53,292.76Z"/><path class="cls-20" d="M462.26,296c-23.33.49-46.46-.08-69.2-3-11.13-1.43-22.75-3.7-29.35-8.65-11.08-8.3-3.11-19.88,7.52-28.35s24.29-17,24.11-27.13a12.82,12.82,0,0,0-2.66-7.27l-46.63-246q35.68-.08,71.39,0C427.93,56.06,439.6,155.88,446,207.21,449.7,237,455.82,266.5,462.26,296Z"/><path class="cls-21" d="M614.38,290.84C595.5,218.67,581,146.08,563.88,72.44c-7.69-32.19-11.34-64.6-18.82-96.31l-56.49-.3c11.85,73.26,14,147.33,23.19,221.26,4,32.12,10.79,63.9,17.77,95.67C557.93,291.12,586.33,289.72,614.38,290.84Z"/><path class="cls-22" d="M666.05,302.49S615,39,601.7-23.52l-56.64-.35c7.48,31.71,11.13,64.12,18.82,96.31,17.15,73.64,31.62,146.23,50.5,218.4q11.48.45,22.86,1.51C649.28,293.5,663.08,296.22,666.05,302.49Z"/><path class="cls-23" d="M346.05-24.43q-59.61.09-119.17.71l53.41,224.33q13.6-.08,27.21.08c19,.21,38.63.8,55.88,5.07,12.93,3.19,24.33,8.92,29.3,15.82Z"/><path class="cls-24" d="M5-18.67c-57.39,2.11-114.68,5.39-171.83,9.11l27.93,265.11c59.59-16.33,133.77-30.34,198.72-39.31-7.05-40.36-19.39-79.76-33.54-121.1C13.76,56.85,14,18.29,5-18.67Z"/><path class="cls-25" d="M131.38,86.45c-9.57-36.13-8.92-73-20.59-108.25Q57.83-20.58,5-18.67c9.06,37,8.81,75.52,21.28,113.81,14.15,41.34,26.49,80.74,33.54,121.1,33.67-4.65,67.85-8.28,102.31-10.87C150.44,166.22,142.41,126.52,131.38,86.45Z"/><path class="cls-26" d="M172.25-23q-30.74.49-61.46,1.19c11.67,35.25,11,72.12,20.59,108.25,11,40.07,19.06,79.77,30.7,118.92q34.5-2.6,69.29-3.79C215.73,126.56,190.57,51.82,172.25-23Z"/><path class="cls-27" d="M226.88-23.72q-27.31.28-54.63.73c18.32,74.81,43.48,149.55,59.12,224.57q24.44-.83,48.92-1Z"/></g><path class="cls-28" d="M1315.51,459.61c-493.71-4.48-924.65,12.74-924.65,12.74L-2.84,459.61V444.32l393.7,12.74s369.78-14.77,816.69-13.4C1249.89,449.1,1286.49,454.43,1315.51,459.61Z"/><ellipse class="cls-29" cx="973.5" cy="53.51" rx="2.58" ry="1.67"/><ellipse class="cls-29" cx="594.09" cy="197.09" rx="2.58" ry="1.67"/><ellipse class="cls-29" cx="800.46" cy="95.2" rx="2.58" ry="1.67"/><ellipse class="cls-29" cx="569.62" cy="128.48" rx="2.58" ry="1.67"/><path class="cls-29" d="M703.78,269.47c0,.92-1.15,1.67-2.58,1.67s-2.58-.75-2.58-1.67,1.16-1.67,2.58-1.67S703.78,268.55,703.78,269.47Z"/><ellipse class="cls-29" cx="1041.35" cy="130.15" rx="2.58" ry="1.67"/><ellipse class="cls-29" cx="730.4" cy="21.74" rx="2.58" ry="1.67"/><path class="cls-29" d="M347.19,280.74c0,.92-1.16,1.67-2.58,1.67s-2.58-.75-2.58-1.67,1.16-1.67,2.58-1.67S347.19,279.82,347.19,280.74Z"/><path class="cls-29" d="M138.24,58.87c0,1.46-1.83,2.65-4.09,2.65s-4.09-1.19-4.09-2.65,1.83-2.66,4.09-2.66S138.24,57.4,138.24,58.87Z"/><path class="cls-29" d="M1184,38.33c0,1.46-1.83,2.65-4.09,2.65s-4.1-1.19-4.1-2.65,1.84-2.65,4.1-2.65S1184,36.86,1184,38.33Z"/><path class="cls-29" d="M482,38.33c0,1.46-1.84,2.65-4.1,2.65s-4.09-1.19-4.09-2.65,1.83-2.65,4.09-2.65S482,36.86,482,38.33Z"/><ellipse class="cls-29" cx="441.62" cy="263.11" rx="2.58" ry="1.67"/><ellipse class="cls-29" cx="1130.5" cy="106.53" rx="2.58" ry="1.67"/><ellipse class="cls-29" cx="242.62" cy="51.84" rx="2.58" ry="1.67"/><ellipse class="cls-29" cx="345.24" cy="195.42" rx="2.58" ry="1.67"/><ellipse class="cls-29" cx="1133.08" cy="207.75" rx="2.58" ry="1.67"/><path class="cls-29" d="M909.44,195.42c0,.92-1.16,1.67-2.58,1.67s-2.58-.75-2.58-1.67,1.16-1.67,2.58-1.67S909.44,194.5,909.44,195.42Z"/></g></svg>