<svg id="Layer_4" data-name="Layer 4" xmlns="http://www.w3.org/2000/svg" viewBox="0 0 1400 1400"><defs><style>.cls-1{fill:#808285;}.cls-2{fill:#e6e7e8;}.cls-3{fill:#f1f2f2;}.cls-4{fill:#bcbec0;}.cls-5{fill:#fff;}.cls-6{fill:#8a8c8e;}</style></defs><title>SealOnIce_VECTOR</title><polygon class="cls-1" points="96.75 778.9 96.75 929.61 135.09 1008.85 135.09 858.14 96.75 778.9"/><polygon class="cls-2" points="682.11 1162.22 682.11 1011.51 135.09 858.14 135.09 1008.85 682.11 1162.22"/><polygon class="cls-3" points="1001.63 1077.87 1001.63 927.16 682.11 1011.51 682.11 1162.22 1001.63 1077.87"/><polygon class="cls-4" points="1226.57 973.17 1226.57 1123.88 1001.63 1077.87 1001.63 927.16 1226.57 973.17"/><polygon class="cls-2" points="1303.25 921.94 1303.25 771.23 1226.57 973.17 1226.57 1123.88 1303.25 921.94"/><polygon class="cls-5" points="96.75 778.9 246.92 684.96 475.06 635.12 682.11 673.46 881.49 652.37 1019.52 707.01 1104.72 742.26 1239.35 749.93 1303.25 771.23 1226.57 973.17 1001.63 927.16 682.11 1011.51 135.09 858.14 96.75 778.9"/><path class="cls-1" d="M402.45,568.66c-49,40.34-88.92,93.68-88.92,160.32-.58-17-.72-36.11-.38-57.47,2.09-129.65-62.27-200.82-62.27-200.82S345.21,483.3,402.45,568.66Z"/><path class="cls-1" d="M714.77,870.25c-64.65,11.77-225.88,33-299.37,4.87-52.26-20-107.59-68.16-101.87-153.38,16-238.51,223.38-270,223.38-270s-35.81,31.86-65.44,104.77c-19.61,48.26-34,112.81-27.82,150.59,3.58,21.87,22.23,49.63,49.64,49.63,15.27,0,32.31-6.69,46.77-14.1s40.55-22.39,63-40.85c21.93-18,36-36.72,42.08-44.36,60.11-75.2,52.21-168.18,45.81-247.75-6.34-79.2,45.84-152.27,123.56-168.74,38.36-8.12,69.34.7,91.16,12.05,17.46,9.05,18.41,32.18,3.35,44.84C776.38,409.41,977.1,531.68,977.1,632.23,983.85,780.52,874.7,841.11,714.77,870.25Z"/><path class="cls-6" d="M1016.44,903.19S935.62,874,920,692.4a91.25,91.25,0,1,0-165.75,52.65S824.82,904.49,1016.44,903.19Z"/></svg>